<?xml version="1.0" encoding="UTF-8"?><svg id="a" xmlns="http://www.w3.org/2000/svg" viewBox="0 0 150 150"><defs><style>.b{fill:#00ccbc;fill-rule:evenodd;}.c{fill:none;}</style></defs><path class="c" d="M0,0H150V150H0V0Z"/><path class="b" d="M99.7,7.05l-5.95,56.15-10.17-47.33-31.88,6.7,10.15,47.33-45.96,9.66,8.12,37.81,80.83,17,18.48-41.08,8.8-82.87-32.42-3.37Zm-25.53,81.44c-1.67,1.51-3.88,1.38-6.22,.6-2.32-.76-3.37-3.56-2.48-6.94,.65-2.5,3.76-2.88,5.32-2.91,.59,0,1.16,.11,1.7,.35,1.1,.49,2.94,1.54,3.33,3.14,.54,2.31,.02,4.25-1.64,5.76Zm23.4,2.61c-1.21,2.08-4.39,2.36-7.53,.84-2.1-1.02-2.08-3.63-1.86-5.2,.13-.88,.48-1.69,1.03-2.37,.75-.95,2.01-2.18,3.45-2.21,2.37-.06,4.39,.99,5.54,2.88,1.16,1.89,.59,3.98-.64,6.06Z"/></svg>