<?xml version="1.0" encoding="UTF-8" standalone="no"?>
<!DOCTYPE svg PUBLIC "-//W3C//DTD SVG 1.1//EN" "http://www.w3.org/Graphics/SVG/1.1/DTD/svg11.dtd">
<svg width="100%" height="100%" viewBox="0 0 543 558" version="1.1" xmlns="http://www.w3.org/2000/svg" xmlns:xlink="http://www.w3.org/1999/xlink" xml:space="preserve" xmlns:serif="http://www.serif.com/" style="fill-rule:evenodd;clip-rule:evenodd;stroke-linejoin:round;stroke-miterlimit:2;">
    <g transform="matrix(1,0,0,1,-23.307958,-20.769222)">
        <g transform="matrix(1.374023,0,0,1.374023,-735,-86)">
            <path d="M904.314,84.883C953.185,109.501 946.466,158.855 946.515,182.5C946.962,398.721 947.543,398.713 946.043,417.449C943.453,449.804 915.016,482.838 873.497,483.214C871.919,483.228 632.351,483.212 629.504,483.202C578.6,483.027 552.631,448.614 552.379,405.499C552.259,385.1 551.277,217.147 552.483,150.5C553.083,117.317 578.223,78.374 627.501,77.774C646.54,77.543 646.524,77.992 865.503,77.722C884.824,77.698 888.508,78.185 904.314,84.883Z" style="fill:rgb(167,14,30);"/>
        </g>
        <g transform="matrix(1.374023,0,0,1.374023,-735,-86)">
            <path d="M832.523,193.216C834.599,193.566 847.745,195.788 856.116,204.886C865.527,215.114 869.154,230.566 865.479,229.73C865.403,229.713 854.934,225.063 840.48,226.244C819.415,227.964 799.382,244.954 794.707,266.545C793.529,271.983 795.12,274.88 791.52,273.433C778.887,268.356 779.03,268.087 765.555,266.053C739.092,262.06 739.24,219.786 762.517,218.822C775.347,218.291 784.441,235.246 769.458,238.26C759.496,240.263 766.383,255.912 780.557,246.587C801.032,233.115 779.911,196.924 751.699,209.922C732.058,218.971 724.159,249.623 746.122,268.859C749.779,272.062 737.023,270.818 723.794,286.731C687.646,330.213 740.428,378.618 771.949,348.97C801.921,320.78 760.002,282.703 742.619,310.564C732.144,327.352 754.802,337.617 753.347,324.518C753.225,323.425 748.327,314.98 758.543,312.759C771.281,309.989 777.519,339.189 755.449,345.313C722.775,354.379 706.376,297.252 752.56,280.664C765.055,276.177 788.384,279.408 797.054,293.806C807.607,311.332 811.857,310.049 812.931,330.485C815.618,381.603 738.433,422.089 691.875,370.171C684.043,361.437 682.081,351.063 678.656,352.828C623.843,381.082 579.501,319.899 611.907,276.815C614.073,273.935 615.348,272.025 616.707,275.403C641.176,336.205 721.822,308.159 709.132,259.594C699.125,221.294 644.291,232.584 653.438,265.518C658.111,282.344 682.564,281.683 678.01,270.672C675.493,264.584 662.372,269.652 664.501,256.5C667.285,239.293 702.47,244.571 698.365,273.477C693.54,307.457 631.516,310.125 625.375,260.514C621.731,231.079 649.708,198.716 687.457,203.908C693.42,204.728 694.774,206.932 697.864,201.726C723.462,158.595 781.296,154.55 811.941,193.116C814.287,196.068 814.845,195.372 818.454,194.34C824.878,192.504 832.327,193.215 832.523,193.216Z" style="fill:rgb(244,240,231);"/>
        </g>
        <g transform="matrix(1.374023,0,0,1.374023,-735,-86)">
            <path d="M897.698,307.527C896.552,313.146 888.041,354.861 848.524,359.697C837.506,361.045 820.051,358.83 820.949,354.614C821.961,349.865 827.3,338.717 823.72,319.481C822.551,313.194 837.616,326.802 856.175,308.178C874.787,289.499 856.066,252.975 831.711,265.913C819.458,272.423 824.708,288.292 832.387,282.344C834.379,280.801 837.577,271.519 846.387,276.69C864.478,287.309 838.147,325.054 812.817,297.209C790.694,272.89 821.302,221.246 866.374,242.751C901.409,259.467 898.141,301.788 897.698,307.527Z" style="fill:rgb(245,240,231);"/>
        </g>
    </g>
</svg>
